<svg width="11.150024" height="8.574997" viewBox="0 0 11.15 8.575" fill="none" xmlns="http://www.w3.org/2000/svg" xmlns:xlink="http://www.w3.org/1999/xlink">
	<desc>
			Created with Pixso.
	</desc>
	<defs/>
	<path id="Vector" d="M3.57495 6.175L9.47498 0.275002C9.65833 0.0916672 9.89172 0 10.175 0C10.4584 0 10.6917 0.0916672 10.875 0.275002C11.0583 0.458336 11.15 0.691666 11.15 0.974998C11.15 1.25833 11.0583 1.49167 10.875 1.675L4.27502 8.27499C4.07495 8.47501 3.84167 8.575 3.57495 8.575C3.30835 8.575 3.07495 8.47501 2.875 8.27499L0.275024 5.675C0.0916748 5.49167 0 5.25833 0 4.97501C0 4.69167 0.0916748 4.45833 0.275024 4.27499C0.458374 4.09166 0.69165 4 0.974976 4C1.2583 4 1.4917 4.09166 1.67505 4.27499L3.57495 6.175Z" fill="#88C747" fill-opacity="1.000000" fill-rule="nonzero"/>
</svg>
