<svg width="25.000488" height="14.583252" viewBox="0 0 25.0005 14.5833" fill="none" xmlns="http://www.w3.org/2000/svg" xmlns:xlink="http://www.w3.org/1999/xlink">
	<desc>
			Created with Pixso.
	</desc>
	<defs/>
	<path id="Vector" d="M24.4271 0.987549C24.6 0.418701 24.4271 0 23.5989 0L20.8646 0C20.1688 0 19.8479 0.361572 19.674 0.760498C19.674 0.760498 18.2833 4.0896 16.3135 6.2522C15.676 6.87915 15.3865 7.07812 15.0385 7.07812C14.8646 7.07812 14.6031 6.87915 14.6031 6.30933L14.6031 0.987549C14.6031 0.304199 14.4114 0 13.8323 0L9.53229 0C9.0979 0 8.83649 0.31665 8.83649 0.617676C8.83649 1.26465 9.8219 1.41455 9.92291 3.23535L9.92291 7.19165C9.92291 8.05933 9.76355 8.21655 9.41565 8.21655C8.48853 8.21655 6.23334 4.87183 4.89478 1.04468C4.63544 0.300049 4.37292 0 3.67395 0L0.9375 0C0.15625 0 0 0.361572 0 0.760498C0 1.47095 0.927063 5 4.31769 9.66772C6.57812 12.8552 9.76044 14.5833 12.6594 14.5833C14.3979 14.5833 14.6125 14.2 14.6125 13.5386L14.6125 11.1292C14.6125 10.3616 14.7771 10.2083 15.3281 10.2083C15.7344 10.2083 16.4291 10.4084 18.0521 11.9448C19.9062 13.7666 20.2115 14.5833 21.2552 14.5833L23.9896 14.5833C24.7708 14.5833 25.1625 14.2 24.9375 13.4417C24.6896 12.6875 23.8042 11.5928 22.6302 10.2937C21.9927 9.5542 21.0364 8.75732 20.7458 8.3584C20.3406 7.84692 20.4562 7.61865 20.7458 7.16357C20.7458 7.16357 24.0792 2.55322 24.426 0.987549L24.4271 0.987549Z" fill="#000000" fill-opacity="1.000000" fill-rule="evenodd"/>
</svg>
